<svg width="52" height="33" viewBox="0 0 52 33" fill="none" xmlns="http://www.w3.org/2000/svg">
<path fill-rule="evenodd" clip-rule="evenodd" d="M9.996 18.094L13.5637 20.6702V25.45L9.97955 32.5L9.996 18.094Z" fill="#62B22F"/>
<path fill-rule="evenodd" clip-rule="evenodd" d="M7.03683 16.0575L10.5974 18.3232L0.0288086 25.3732L3.47834 18.4778L7.03683 16.0575Z" fill="#974995"/>
<path fill-rule="evenodd" clip-rule="evenodd" d="M23.638 9.54368L16.8366 9.50642L13.5607 7.34344L10.0002 0.5L23.638 9.54368Z" fill="#EE7024"/>
<path fill-rule="evenodd" clip-rule="evenodd" d="M10.0001 0.5L13.5606 7.34343L13.5678 16.7732L9.97852 15.5687L10.0001 0.5Z" fill="#FBB61B"/>
<path fill-rule="evenodd" clip-rule="evenodd" d="M0 7.38519L3.48962 14.3528L3.47832 18.4778L0.0287804 25.3732L0 7.38519Z" fill="#5A58A3"/>
<path fill-rule="evenodd" clip-rule="evenodd" d="M0 7.38519L23.5845 23.2339L16.8263 23.2858L3.48962 14.3528L0 7.38519Z" fill="#2188CB"/>
<path fill-rule="evenodd" clip-rule="evenodd" d="M16.8366 9.50642L23.638 9.54368L13.571 16.3408L13.5607 11.6988L16.8366 9.50642Z" fill="#DA0954"/>
<path fill-rule="evenodd" clip-rule="evenodd" d="M36.4504 10.6297C37.2778 9.80106 38.4105 9.38337 39.5248 9.42175C40.6893 9.39578 41.8621 9.48271 43.0205 9.33144C42.7697 10.1759 42.261 10.9074 41.9218 11.7157C41.0871 11.7326 40.2515 11.6988 39.4179 11.7304C38.3458 11.8263 37.3241 12.7802 37.2192 13.9803C38.1947 12.9123 39.7211 12.8401 40.9854 13.1912C41.8323 13.5073 42.5868 14.2049 42.8941 15.1442C43.1778 15.9694 43.2241 16.8759 43.039 17.7328C42.7584 18.908 41.8981 19.8179 40.8836 20.248C39.6872 20.7424 38.3108 20.7684 37.1195 20.2446C35.9889 19.7388 35.1892 18.5648 34.9158 17.2767C34.6167 16.1308 34.6568 14.4341 34.9631 13.2691C35.2283 12.2632 35.7494 11.3364 36.4504 10.6297ZM39.3449 15.1047C38.7086 14.9658 37.9922 15.2514 37.6623 15.8656C37.063 16.9809 37.8863 18.646 39.2298 18.4361C40.6955 18.208 41.0768 15.6127 39.3449 15.1047ZM29.8741 12.2203C31.1918 11.8647 32.6987 11.9686 33.8242 12.8706C33.4521 13.5298 33.116 14.2117 32.7747 14.8902C32.2248 14.6892 31.6903 14.3697 31.0952 14.3856C30.4641 14.3641 29.7805 14.635 29.4218 15.2311C29.0394 15.8622 29.0209 16.7292 29.393 17.3726C29.724 17.98 30.3746 18.2611 30.9924 18.3243C31.4745 18.2645 31.9648 18.19 32.4109 17.9653C32.5178 17.8919 32.6411 17.8953 32.7624 17.9044C32.9803 18.5885 33.4572 19.1541 33.6453 19.8461C32.4314 20.5584 30.9842 20.704 29.6551 20.3496C28.7393 20.0538 27.8666 19.4781 27.3424 18.5817C26.5129 17.1841 26.5448 15.2074 27.4976 13.8911C28.0722 13.0399 28.951 12.4856 29.8741 12.2203ZM44.3188 12.2564C46.8792 12.2361 49.4406 12.235 52 12.2564C51.9774 14.9274 51.9918 17.6007 51.9939 20.2717C51.1325 20.2762 50.2701 20.2784 49.4088 20.2705C49.4489 18.5174 49.3687 16.7664 49.419 15.0189C49.4232 14.8823 49.3944 14.7558 49.3337 14.6384C48.5474 14.6576 47.759 14.6587 46.9727 14.6373C46.9234 16.5113 46.9635 18.3898 46.9532 20.266C46.0764 20.283 45.1996 20.2739 44.3239 20.2705C44.3249 17.5984 44.3352 14.9274 44.3188 12.2564Z" fill="#1B1537"/>
<path fill-rule="evenodd" clip-rule="evenodd" d="M13.5637 25.45L16.8262 23.2859L23.5845 23.2339L9.97955 32.5L13.5637 25.45Z" fill="#037F37"/>
</svg>
