<svg width="77" height="14" viewBox="0 0 77 14" fill="none" xmlns="http://www.w3.org/2000/svg">
<path d="M1 7H13" stroke="#750DC5" stroke-width="2" stroke-linecap="round"/>
<path d="M42.3984 10.8125V12H34.9531V10.9609L38.6797 6.8125C39.138 6.30208 39.4922 5.86979 39.7422 5.51562C39.9974 5.15625 40.1745 4.83594 40.2734 4.55469C40.3776 4.26823 40.4297 3.97656 40.4297 3.67969C40.4297 3.30469 40.3516 2.96615 40.1953 2.66406C40.0443 2.35677 39.8203 2.11198 39.5234 1.92969C39.2266 1.7474 38.8672 1.65625 38.4453 1.65625C37.9401 1.65625 37.5182 1.75521 37.1797 1.95312C36.8464 2.14583 36.5964 2.41667 36.4297 2.76562C36.263 3.11458 36.1797 3.51562 36.1797 3.96875H34.7344C34.7344 3.32812 34.875 2.74219 35.1562 2.21094C35.4375 1.67969 35.8542 1.25781 36.4062 0.945312C36.9583 0.627604 37.638 0.46875 38.4453 0.46875C39.1641 0.46875 39.7786 0.596354 40.2891 0.851562C40.7995 1.10156 41.1901 1.45573 41.4609 1.91406C41.737 2.36719 41.875 2.89844 41.875 3.50781C41.875 3.84115 41.8177 4.17969 41.7031 4.52344C41.5938 4.86198 41.4401 5.20052 41.2422 5.53906C41.0495 5.8776 40.8229 6.21094 40.5625 6.53906C40.3073 6.86719 40.0339 7.1901 39.7422 7.50781L36.6953 10.8125H42.3984Z" fill="#0C0C0C"/>
<path d="M70 1V13" stroke="#750DC5" stroke-width="2" stroke-linecap="round"/>
<path d="M64 7H76" stroke="#750DC5" stroke-width="2" stroke-linecap="round"/>
</svg>
